<?xml version="1.0" encoding="UTF-8" standalone="no"?><!DOCTYPE svg PUBLIC "-//W3C//DTD SVG 1.1//EN" "http://www.w3.org/Graphics/SVG/1.1/DTD/svg11.dtd"><svg width="100%" height="100%" viewBox="0 0 512 512" version="1.1" xmlns="http://www.w3.org/2000/svg" xmlns:xlink="http://www.w3.org/1999/xlink" xml:space="preserve" xmlns:serif="http://www.serif.com/" style="fill-rule:evenodd;clip-rule:evenodd;stroke-linejoin:round;stroke-miterlimit:2;"><g><g><g><path d="M77.933,141.77c-1.149,1.054 -1.229,1.079 -2.787,1.012c-0.984,-0.042 -1.984,-0.545 -2.683,-1.24c-5.263,-5.237 -10.039,-10.943 -15.059,-16.414l-17.864,-19.471c-0.336,-0.926 -1.047,-1.795 -1.005,-2.779c0.001,-0.017 1.246,-2.693 1.255,-2.696c0.926,-0.337 1.795,-1.047 2.779,-1.005c0.984,0.042 1.989,0.541 2.683,1.24l32.922,35.886c0.336,0.926 1.047,1.795 1.005,2.779c-0.067,1.558 -0.099,1.635 -1.247,2.689Z" style="fill:#fff;"/><path d="M51.489,128.92c-5.265,0.15 -15.854,1.271 -24.832,-0.609c-3.131,-0.656 -2.68,-1.525 -3.235,-4.677c-0.002,-0.009 1.692,-2.422 1.706,-2.431c1.706,-1.086 1.853,-0.708 3.841,-0.333c9.832,1.856 22.637,-0.378 26.299,0.514c5.234,1.275 4.054,8.533 3.342,13.235c-1.149,7.589 -2.997,16.911 -0.642,23.57c0.53,1.5 -0.046,2.736 -0.146,2.95c-0.007,0.015 -2.177,2.007 -2.186,2.006c-0.984,-0.045 -2.059,0.279 -2.952,-0.138c-1.741,-0.812 -1.643,-1.037 -2.239,-2.861c-3.463,-10.588 0.754,-24.982 1.044,-31.225Z" style="fill:#fff;"/><path d="M85.752,117.196c-2.427,-2.564 -7.343,-7.326 -15.876,-13.591c-1.509,-1.108 -1.769,-1.05 -2.069,-2.898c-0.003,-0.017 0.676,-2.89 0.683,-2.894c0.838,-0.518 1.546,-1.389 2.519,-1.546c1.882,-0.305 1.914,-0.038 3.45,1.087c1.459,1.069 2.848,2.123 4.16,3.152c-0.019,-0.193 -0.036,-0.386 -0.051,-0.581c-0.813,-10.523 5.66,-17.769 17.367,-14.952c3.18,0.765 2.786,1.584 3.251,4.818c0.001,0.009 -1.768,2.372 -1.783,2.38c-1.904,1.129 -2.05,0.521 -4.227,0.138c-3.5,-0.614 -6.616,-0.149 -6.906,5.135c-0.128,2.326 0.382,5.194 1.54,8.111c1.129,2.845 2.569,4.987 3.664,6.372c1.185,1.245 1.923,2.132 2.171,2.549c1.325,2.225 0.068,5.174 -2.455,5.758c-0.25,0.058 -1.719,0.398 -3.149,-0.637c-0.42,-0.304 -1.267,-1.136 -2.29,-2.401Z" style="fill:#fff;"/><path d="M110.529,62.91c0.181,-0.113 10.101,-7.195 18.932,-1.856c9.702,5.865 9.841,22.197 -3.476,29.329c-11.194,5.995 -22.089,-5.821 -21.406,-17.006c0.44,-7.194 5.469,-10.142 5.949,-10.467Zm4.19,6.521c-0.161,0.088 -3.145,1.753 -2.256,6.664c0.795,4.39 4.883,9.949 9.692,7.543c5.25,-2.628 7.845,-8.288 5.839,-12.941c-0.809,-1.875 -2.457,-3.594 -5.161,-3.851c-3.651,-0.347 -7.371,2.119 -8.107,2.581c-0.001,0.001 -0.003,0.002 -0.007,0.004Z" style="fill:#fff;"/><path d="M146.017,41.304c0.218,-1.148 0.596,-1.286 1.885,-2.251c12.506,-9.369 21.997,0.89 23.512,12.579c0.748,5.771 -0.843,8.415 -2.499,10.794c-7.656,10.996 -23.51,9.553 -26.607,-3.342c-1.765,-7.352 2.077,-15.32 2.506,-16.283c0.314,-0.704 0.78,-1.182 1.203,-1.497Zm6.057,4.288c-0.151,0.342 -0.359,0.75 -0.602,1.328c-5.178,12.328 1.376,17.269 7.383,14.334c2.939,-1.436 4.703,-4.619 4.869,-5.438c0.749,-3.702 -1.947,-13.283 -6.935,-12.611c-2.262,0.305 -4.589,2.349 -4.639,2.364c-0.025,0.008 -0.051,0.016 -0.075,0.023Z" style="fill:#fff;"/><path d="M188.222,57.971c-1.554,0.127 -1.632,0.097 -2.821,-0.912c-0.751,-0.637 -1.224,-1.649 -1.357,-2.625c-0.834,-6.148 -1.011,-12.367 -1.517,-18.55l-1.799,-22.004c0.303,-0.937 0.275,-2.06 0.912,-2.811c0.011,-0.013 2.637,-1.361 2.645,-1.359c0.938,0.302 2.06,0.275 2.811,0.912c0.751,0.637 1.232,1.648 1.357,2.625c0.935,7.3 1.199,14.67 1.799,22.004l1.517,18.55c-0.303,0.937 -0.275,2.06 -0.912,2.811c-1.009,1.189 -1.081,1.231 -2.635,1.358Z" style="fill:#fff;"/><path d="M199.55,33.932c6.212,-0.341 16.134,0.007 24.539,12.48c1.02,1.514 1.219,1.57 0.853,3.356c-0.003,0.016 -1.657,2.462 -1.666,2.464c-0.967,0.187 -1.938,0.75 -2.903,0.552c-1.962,-0.402 -1.82,-0.757 -2.96,-2.403c-10.797,-15.589 -22.321,-4.172 -28.026,-10.859c-0.249,-0.292 -1.919,-2.249 -0.354,-4.782c0.849,-1.373 8.683,-12.611 18.055,-15.042c1.639,-0.425 1.742,-0.484 3.186,0.397c0.014,0.009 1.755,2.393 1.754,2.402c-0.153,0.971 0.046,2.073 -0.466,2.912c-1.268,2.079 -1.837,1.355 -4.064,2.337c-2.765,1.219 -5.614,3.682 -7.949,6.187Z" style="fill:#fff;"/><path d="M241.984,34.273c-0.224,2.261 -0.153,4.981 0.655,6.276c1.94,3.111 9.815,1.284 12.795,-1.1c1.265,-1.012 2.581,-0.903 2.817,-0.883c0.017,0.001 2.636,1.346 2.639,1.355c1.021,3.188 1.727,3.807 -0.936,5.837c-5.867,4.474 -19.917,7.369 -24.492,-2.199c-0.27,-0.565 -1.692,-3.193 -1.239,-9.573c1.087,-15.314 14.485,-18.041 22.823,-14.1c6.234,2.946 5.445,7.935 4.315,9.991c-2.343,4.262 -8.574,4.534 -16.345,5.491c-1.546,0.19 -1.625,0.164 -2.855,-0.792c-0.003,-0.002 -0.071,-0.12 -0.177,-0.304Zm2.858,-6.692c2.833,-0.344 5.78,-0.638 7.842,-1.077c-2.178,-0.69 -5.477,-0.904 -7.842,1.077Z" style="fill:#fff;"/><path d="M297.412,44.557c1.597,-1.412 3.721,-0.927 4.05,-0.852c0.355,0.081 2.739,0.625 3.131,3.307c0.213,1.458 -0.318,3.566 -3.086,4.526c-4.849,1.682 -23.402,3.457 -27.581,-9.741c-1.622,-5.121 -1.734,-15.592 7.717,-19.803c5.525,-2.462 12.431,-1.793 17.309,0.977c2.127,-8.304 4.779,-18.002 4.78,-18.004c0.605,-0.778 0.962,-1.842 1.818,-2.33c0.015,-0.008 2.943,-0.378 2.95,-0.373c0.778,0.604 1.841,0.962 2.328,1.818c0.488,0.856 0.381,1.946 0.38,2.931c-0,0.012 -4.22,15.413 -6.235,23.848c0.141,0.966 0.128,1.984 -0.062,3.046c-0.186,1.038 -0.961,3.938 -2.734,4.964c-1.758,1.018 -3.772,0.48 -4.874,-0.702c-1.462,-1.567 -1.214,-3.281 -0.368,-6.975c-0.255,-0.366 -0.664,-0.763 -1.294,-1.188c-3.842,-2.599 -12.961,-3.018 -14.509,3.427c-0.299,1.247 -0.862,5.716 1.477,8.324c3.082,3.435 10.412,3.573 14.804,2.8Zm-0.451,-11.139c-0.009,-0.002 -0.012,0.014 -0.015,0.031c0.005,-0.01 0.01,-0.021 0.015,-0.031Z" style="fill:#fff;"/><path d="M325.089,49.651c2.301,1.624 8.83,2.671 16.682,5.052c1.532,0.465 2.179,1.684 2.29,1.894c0.008,0.015 0.288,2.953 0.283,2.96c-0.627,0.758 -1.018,1.809 -1.887,2.27c-1.637,0.868 -1.748,0.647 -3.524,0.115c-10.576,-3.17 -20.307,-3.867 -21.576,-10.733c-0.654,-3.539 1.653,-6.615 2.418,-7.733c16.324,-23.85 16.754,-23.559 18.112,-25.936c0.796,-1.393 2.093,-1.766 2.32,-1.831c0.016,-0.005 2.944,0.324 2.95,0.331c0.614,0.77 1.563,1.37 1.836,2.316c0.512,1.778 0.329,1.857 -0.616,3.449c-0.907,1.529 -5.209,6.994 -18.591,26.613c-0.404,0.592 -0.599,0.989 -0.696,1.232Z" style="fill:#fff;"/><path d="M373.251,46.3c0.059,-0.728 0.538,-1.368 1.748,-2.318c3.399,-2.668 7.872,1.034 5.955,4.83c-0.592,1.172 -1.812,2.351 -15.094,20.353c-0.93,1.26 -2.332,1.473 -2.567,1.509c-0.017,0.003 -2.856,-0.686 -2.86,-0.693c-0.509,-0.843 -1.373,-1.56 -1.52,-2.534c-0.148,-0.974 0.315,-1.965 0.701,-2.871c0.091,-0.214 10.446,-14.015 13.636,-18.274Z" style="fill:#fff;"/><path d="M381.826,29.395c0,-1.559 0.036,-1.635 1.138,-2.737c0.697,-0.697 1.77,-0.904 2.727,-1.138c0.326,-0.08 0.331,0 4.199,0c1.559,0 1.635,0.036 2.737,1.138c0.012,0.012 1.142,2.739 1.138,2.747c-0.377,0.91 -0.442,2.031 -1.138,2.727c-0.697,0.697 -1.767,0.92 -2.727,1.138c-0.328,0.074 -0.331,0 -4.199,0c-1.559,0 -1.635,-0.036 -2.737,-1.138c-1.103,-1.103 -1.138,-1.178 -1.138,-2.737Z" style="fill:#fff;"/><path d="M384.919,82.304c-1.136,-1.068 -1.166,-1.146 -1.215,-2.704c-0.03,-0.985 0.412,-2.007 1.038,-2.767c3.117,-3.782 6.713,-7.141 10.069,-10.712l11.944,-12.707c0.899,-0.404 1.713,-1.177 2.697,-1.207c0.017,-0.001 2.778,1.044 2.781,1.052c0.405,0.898 1.177,1.713 1.207,2.697c0.03,0.985 -0.405,2.012 -1.038,2.767c-1.652,1.969 -1.759,1.871 -22.007,23.412c-1.068,1.136 -1.146,1.166 -2.704,1.215c-1.559,0.048 -1.638,0.023 -2.774,-1.045Z" style="fill:#fff;"/><path d="M402.599,98.582c-1.089,-1.116 -1.116,-1.195 -1.097,-2.754c0.012,-0.985 0.497,-1.988 1.156,-2.72c3.39,-3.757 7.242,-7.069 10.864,-10.604l12.887,-12.578c0.915,-0.365 1.762,-1.102 2.747,-1.09c0.017,0 2.73,1.162 2.734,1.171c0.366,0.915 1.102,1.762 1.09,2.747c-0.012,0.985 -0.49,1.994 -1.156,2.72c-1.795,1.955 -1.898,1.852 -23.743,23.175c-1.116,1.089 -1.195,1.116 -2.754,1.097c-1.559,-0.019 -1.638,-0.048 -2.727,-1.164Z" style="fill:#fff;"/><path d="M434.87,132.644c7.505,3.157 15.143,7.429 22.304,12.75c28.585,21.237 35.985,48.192 38.16,55.444c5.268,17.563 18.558,67.854 -2.547,136.846c-22.291,72.87 -70.477,113.829 -100.644,134.341c-8.343,5.673 -16.501,10.131 -17.978,10.938c-1.487,0.812 -11.823,6.652 -28.739,13.275c-3.511,1.375 -9.273,3.223 -10.086,3.484c-7.039,2.258 -11.44,3.284 -12.448,3.519c2.533,-0.95 9.322,-3.402 25.651,-11.856c0.315,-0.163 13.022,-6.549 31.734,-18.789c22.156,-14.494 35.525,-27.11 38.749,-30.119c25.142,-23.47 61.377,-66.125 74.11,-136.822c2.661,-14.772 9.751,-58.97 -6.63,-107.945c-11.257,-33.654 -38.413,-52.801 -60.452,-60.267c-19.994,10.409 -26.983,10.485 -28.682,10.56c-11.47,0.507 -12.11,-10.292 -8.123,-15.54c5.541,-7.293 19.778,-8.135 35.983,-3.29c4.085,-2.198 8.047,-4.465 11.575,-6.55c-2.917,-0.202 -5.274,-0.835 -6.739,-2.147c-0.356,-0.319 -3.803,-3.423 -0.056,-8.208c1.66,-2.12 4.008,-3.958 7.744,-7.449c-1.585,-0.749 -3.369,-0.228 -6.161,0.524c-0.09,0.024 -1.167,0.327 -2.007,0.429c-1.801,0.22 -2.897,-0.693 -3.095,-0.857c-0.013,-0.011 -1.386,-2.624 -1.383,-2.633c0.293,-0.936 0.26,-2.052 0.888,-2.805c1.303,-1.564 1.616,-1.089 3.584,-1.619c2.662,-0.717 11.026,-3.754 16.794,4.65c0.249,0.363 1.837,2.685 -0.349,5.099c-1.337,1.476 -5.288,4.862 -7.892,7.339c5.197,0.153 13.272,-1.119 13.604,-1.155c3.751,-0.407 5.569,3.708 3.566,6.221c-0.359,0.451 -0.891,0.811 -0.978,0.87c-2.168,1.47 -8.398,5.251 -9.134,5.698c-3.707,2.25 -7.141,4.262 -10.321,6.062Zm-20.213,1.868c-7.067,-1.2 -12.958,-0.93 -16.669,0.675c-0.121,0.053 -3.777,1.373 -3.244,4.594c0.013,0.081 0.031,0.164 0.061,0.241c0.005,0.014 0.008,0.024 0.008,0.033c0.033,-0.029 0.035,-0.02 0.018,0.011c0.283,0.142 3.642,1.853 18.891,-5.121c0.311,-0.142 0.623,-0.286 0.936,-0.432Zm-19.889,5.59c-0.013,0.009 -0.027,0.021 -0.039,0.041c0.014,-0.012 0.027,-0.027 0.039,-0.041Zm-0.175,0.322c-0.007,0.01 -0.012,0.02 -0.017,0.028l0.017,-0.028Z" style="fill:#fff;"/></g><g><g><path d="M194.454,395.665c0.057,0.003 -0.222,-0.056 -0.164,-0.052c1.349,0.081 5.006,0.752 5.439,0.831c3.267,0.599 19.111,3.416 36.562,14.517c8.153,5.187 13.267,10.167 15.526,12.451c1.08,1.092 1.002,2.565 0.99,2.803c-0.001,0.017 -1.273,2.681 -1.281,2.684c-3.121,1.096 -3.701,1.834 -5.81,-0.716c-4.335,-5.241 -15.228,-17.242 -39.654,-28.076c-5.95,-2.639 -10.659,-4.139 -11.606,-4.441Z" style="fill:#fff;"/><path d="M255.574,420.852c0.095,0.417 0.293,0.806 0.388,1.223c0.111,0.487 0.067,2.289 -1.3,3.473c-0.727,0.63 -12.094,7.329 -24.188,8.482c-9.9,0.944 -18.601,-2.079 -27.829,-10.058c-6.199,-5.36 -14.17,-14.495 -19.447,-17.125c-7.252,-3.614 -20.362,-4.328 -27.536,-4.171c-2.723,0.06 -5.157,-2.897 -3.345,-5.991c0.019,-0.033 1.549,-2.424 4.527,-5.468c13.034,-13.326 30.958,-17.219 47.635,-13.683c32.632,6.919 50.757,42.676 51.095,43.318Zm-8.768,0.221c-5.384,-8.993 -22.192,-33.398 -47.737,-36.596c-3.071,-0.384 -20.417,-2.894 -35.089,10.618c7.802,0.44 18.517,1.862 25.088,6.197c5.735,3.784 13.624,12.474 18.654,16.824c10.054,8.694 18.504,10.085 30.337,6.462c3.136,-0.96 6.272,-2.292 8.747,-3.504Z" style="fill:#fff;"/></g><g><path d="M334.486,428.914c-0.057,0.002 0.223,-0.05 0.166,-0.048c-1.351,0.046 -5.024,0.62 -5.459,0.688c-3.282,0.513 -19.194,2.913 -36.931,13.552c-8.287,4.971 -13.529,9.815 -15.848,12.039c-1.109,1.063 -1.069,2.538 -1.063,2.776c0,0.017 1.202,2.713 1.21,2.716c3.091,1.177 3.652,1.931 5.827,-0.563c4.471,-5.126 15.675,-16.836 40.378,-27.025c6.017,-2.482 10.764,-3.858 11.719,-4.134Z" style="fill:#fff;"/><path d="M272.725,452.488c-0.106,0.414 -0.314,0.798 -0.42,1.212c-0.124,0.484 -0.127,2.287 1.208,3.506c0.71,0.649 11.898,7.644 23.957,9.114c9.872,1.203 18.649,-1.59 28.083,-9.323c6.338,-5.195 14.546,-14.118 19.89,-16.609c7.344,-3.422 20.469,-3.792 27.636,-3.446c2.72,0.131 5.231,-2.761 3.502,-5.901c-0.018,-0.033 -1.485,-2.463 -4.382,-5.585c-12.68,-13.663 -30.496,-18.026 -47.26,-14.929c-32.802,6.059 -51.86,41.329 -52.215,41.961Zm8.759,0.451c5.618,-8.849 23.061,-32.804 48.681,-35.33c3.08,-0.304 20.486,-2.357 34.798,11.535c-7.811,0.235 -18.559,1.375 -25.242,5.536c-5.833,3.632 -13.947,12.112 -19.089,16.328c-10.278,8.427 -18.762,9.596 -30.496,5.663c-3.11,-1.042 -6.21,-2.456 -8.652,-3.732Z" style="fill:#fff;"/></g><path d="M32.62,163.999c-1.469,3.724 -6.217,15.214 -11.155,37.301c-0.596,2.666 -3.531,15.793 -5.443,33.708c-0.019,0.174 -1.317,11.992 -1.504,23.516c-0.065,3.972 -0.811,39.58 12.096,79.807c9.428,29.384 29.332,72.161 78.728,114.328c58.953,50.326 149.56,60.074 174.178,39.309c0.802,-0.676 7.297,-5.804 5.499,-14.878c-3.596,-18.141 -39.556,-23.892 -37.654,-48.23c1.76,-22.519 35.345,-22.517 37.755,-40.478c0.268,-1.997 0.891,-5.002 -4.289,-12.037c-8.358,-11.35 -25.454,-24.162 -31.883,-28.639c-1.279,-0.891 -1.324,-0.96 -1.603,-2.494c-0.003,-0.017 0.62,-2.902 0.627,-2.907c0.828,-0.534 1.519,-1.418 2.488,-1.595c1.801,-0.328 1.85,-0.116 3.348,0.935c2.636,1.848 14.882,10.613 24.868,20.567c15.302,15.252 14.749,22.648 14.099,27.25c-3.207,22.69 -35.687,23.04 -37.666,39.417c-2.45,20.286 37.873,25.055 37.873,51.329c0,21.735 -28.817,32.646 -70.193,28.852c-35.225,-3.23 -84.408,-17.983 -123.341,-51.737c-59.667,-51.73 -87.735,-112.945 -91.097,-184.714c-1.346,-28.74 5.549,-55.864 6.717,-60.606c3.415,-13.87 6.853,-23.728 10.649,-32.967c3.47,-8.446 6.409,-14.068 6.904,-15.04Z" style="fill:#fff;"/></g></g><g><g><path d="M211.212,203.416c-1.559,0 -1.635,-0.036 -2.737,-1.138c-0.697,-0.697 -1.065,-1.745 -1.138,-2.727c-0.311,-4.161 0,-8.344 0,-12.516l0,-26.461c0.378,-0.91 0.442,-2.031 1.138,-2.727c0.012,-0.012 2.739,-1.142 2.747,-1.138c0.91,0.377 2.031,0.442 2.727,1.138c0.697,0.697 1.1,1.743 1.138,2.727c0.122,3.115 0,3.115 0,38.968c0,1.559 -0.036,1.635 -1.138,2.737c-1.103,1.103 -1.178,1.138 -2.737,1.138Z" style="fill:#fff;"/><path d="M296.229,205.276c-1.559,-0 -1.635,-0.036 -2.737,-1.138c-0.697,-0.697 -1.068,-1.745 -1.138,-2.727c-0.313,-4.36 0,-8.742 0,-13.114l0,-27.725c0.378,-0.91 0.442,-2.031 1.138,-2.727c0.012,-0.012 2.739,-1.142 2.747,-1.138c0.91,0.377 2.031,0.442 2.727,1.138c0.697,0.697 1.102,1.743 1.138,2.727c0.122,3.264 0,3.264 0,40.828c0,1.559 -0.036,1.635 -1.138,2.737c-1.103,1.103 -1.178,1.138 -2.737,1.138Z" style="fill:#fff;"/><path d="M297.439,121.25c1.638,0.031 8.628,0.021 14.751,6.217c9.216,9.327 7.411,25.44 -4.487,32.285c-11.982,6.893 -27.257,0.172 -30.354,-13.231c-3.005,-13.004 6.954,-25.026 19.56,-25.264c0.177,-0.003 0.353,-0.003 0.53,-0.007Zm0,7.734c-0.155,0.012 -0.321,0.022 -0.499,0.027c-8.583,0.272 -14.944,9.241 -11.358,17.862c2.956,7.105 12.082,10.434 19.173,5.579c7.7,-5.272 7.37,-17.113 -1.053,-21.824c-3.278,-1.833 -6.263,-1.592 -6.263,-1.627c0,-0.006 0,-0.012 0,-0.018Z" style="fill:#fff;"/><circle cx="211.851" cy="141.864" r="4.001" style="fill:#fff;"/><circle cx="297.423" cy="141.864" r="4.001" style="fill:#fff;"/><path d="M211.863,121.25c1.638,0.031 8.628,0.021 14.751,6.217c9.216,9.327 7.411,25.44 -4.487,32.285c-11.982,6.893 -27.257,0.172 -30.354,-13.231c-3.005,-13.004 6.954,-25.026 19.56,-25.264c0.177,-0.003 0.353,-0.003 0.53,-0.007Zm0,7.734c-0.155,0.012 -0.321,0.022 -0.499,0.027c-8.583,0.272 -14.944,9.241 -11.358,17.862c2.956,7.105 12.082,10.434 19.173,5.579c7.7,-5.272 7.37,-17.113 -1.053,-21.824c-3.278,-1.833 -6.263,-1.592 -6.263,-1.627c0,-0.006 0,-0.012 0,-0.018Z" style="fill:#fff;"/></g><path d="M255.604,236.992c11.95,-16.752 57.316,-72.451 125.27,-61.095c45.5,7.604 69.04,45.115 54.755,75.549c-4.925,10.493 -14.414,16.139 -24.138,18.995c-13.837,4.065 -27.98,2.424 -27.98,2.424c-1.678,-0.194 -3.037,-1.453 -3.359,-3.111c-0.322,-1.658 0.467,-3.334 1.951,-4.142c0,0 7.749,-4.223 14.523,-10.309c4.108,-3.691 7.982,-8.022 8.95,-12.585c1.863,-8.787 -3.017,-14.799 -9.919,-17.549c-7.502,-2.99 -17.292,-2.417 -24.407,2.406c-11.742,7.959 -18.054,18.75 -22.38,30.456c-4.571,12.368 -6.976,25.749 -10.757,38.199c-4.019,13.233 -9.585,25.424 -20.252,34.622c-10.597,9.138 -26.302,15.413 -50.941,16.45c-36.818,1.549 -59.217,-6.978 -73.545,-20.058c-14.369,-13.117 -20.703,-30.981 -24.985,-48.672c-2.721,-11.239 -4.619,-22.379 -7.469,-31.992c-2.614,-8.818 -5.946,-16.321 -11.908,-21.031c-8.897,-7.03 -19.611,-7.792 -27.736,-4.477c-5.101,2.081 -9.185,5.769 -10.874,10.562c-0.823,2.335 -0.504,4.821 0.378,7.31c1.064,3.002 2.949,5.987 5.14,8.8c7.034,9.031 17.266,16.246 17.266,16.246c1.349,0.953 1.947,2.656 1.488,4.243c-0.459,1.587 -1.873,2.708 -3.523,2.794c0,0 -16.137,0.835 -31.206,-4.564c-10.609,-3.801 -20.596,-10.664 -24.819,-22.531c-10.345,-29.07 15.241,-67.043 70.634,-68.087c41.197,-0.776 73.687,20.995 96.855,45.792c4.721,5.053 9.052,10.228 12.991,15.355Zm4.853,6.562c12.349,17.339 20.049,33.245 22.94,40.825c0.762,1.999 -0.241,4.24 -2.24,5.003c-1.999,0.762 -4.24,-0.241 -5.003,-2.24c-2.881,-7.551 -10.755,-23.693 -23.419,-41.054c-0.068,-0.089 -0.134,-0.179 -0.197,-0.27c-4.579,-6.258 -9.779,-12.668 -15.59,-18.888c-21.805,-23.338 -52.272,-44.064 -91.045,-43.334c-48.448,0.913 -72.525,32.312 -63.477,57.738c3.388,9.521 11.619,14.783 20.13,17.833c5.914,2.119 12.01,3.174 17.012,3.69c-3.204,-2.91 -6.753,-6.478 -9.768,-10.348c-5.79,-7.433 -9.336,-16.007 -6.713,-23.449c2.396,-6.8 8.018,-12.209 15.256,-15.163c10.383,-4.237 24.099,-3.412 35.47,5.572c5.759,4.55 9.685,11.138 12.607,19.065c4.027,10.922 6.176,24.493 9.498,38.217c3.928,16.228 9.497,32.739 22.678,44.771c13.221,12.07 34.017,19.468 67.993,18.038c21.428,-0.902 35.486,-5.892 45.066,-13.625c14.439,-11.656 18.616,-29.297 23.117,-47.126c5.461,-21.63 11.294,-43.527 32.124,-57.646c9.222,-6.251 21.903,-7.065 31.626,-3.19c10.322,4.114 17.419,13.217 14.633,26.358c-1.267,5.976 -5.971,11.908 -11.352,16.743c-1.666,1.496 -3.385,2.89 -5.053,4.154c3.844,-0.301 8.216,-0.945 12.554,-2.22c7.711,-2.265 15.401,-6.531 19.306,-14.852c12.416,-26.453 -9.467,-58.001 -49.015,-64.611c-67.377,-11.26 -110.985,47.894 -119.139,60.011Z" style="fill:#fff;"/></g></g></svg>