<?xml version="1.0" encoding="UTF-8" standalone="no"?><!DOCTYPE svg PUBLIC "-//W3C//DTD SVG 1.1//EN" "http://www.w3.org/Graphics/SVG/1.1/DTD/svg11.dtd"><svg width="100%" height="100%" viewBox="0 0 3727 1025" version="1.1" xmlns="http://www.w3.org/2000/svg" xmlns:xlink="http://www.w3.org/1999/xlink" xml:space="preserve" xmlns:serif="http://www.serif.com/" style="fill-rule:evenodd;clip-rule:evenodd;stroke-linejoin:round;stroke-miterlimit:2;"><g id="KrookedLilly"><g><g><path d="M1151.83,788.999c-1.569,-0.09 -3.155,-0.024 -4.708,-0.269c-1.06,-0.167 -6.856,-1.08 -12.074,-5.856c-1.054,-0.964 -7.123,-6.519 -7.583,-16.166l-12.97,-293.075c-0.048,-1.09 -0.314,-7.104 3.423,-13.199c5.018,-8.185 12.841,-10.14 14.212,-10.483c9.517,-2.379 16.633,1.983 17.865,2.739c8.185,5.018 10.14,12.841 10.483,14.212c0.38,1.522 0.609,3.089 0.683,4.656l12.97,293.075c0.048,1.09 0.314,7.104 -3.423,13.199c-5.018,8.185 -12.841,10.14 -14.212,10.483l-4.666,0.684Z" style="fill:#fff;"/><path d="M1079.524,627.229c-16.359,-12.789 -48.4,-35.484 -76.295,-60.932c-20.225,-18.451 -31.139,-31.778 -37.043,-39.446c-5.881,-7.639 -4.794,-15.867 -4.606,-17.285c0.926,-7.01 4.779,-11.438 5.483,-12.248c6.436,-7.397 14.763,-7.894 16.206,-7.98c9.581,-0.572 15.67,4.717 16.737,5.643c2.58,2.241 2.412,2.404 4.526,5.091c33.552,42.657 96.535,82.294 115.561,100.306c7.267,6.88 15.217,16.716 10.109,33.261c-6.789,21.992 -34.584,42.127 -69.626,73.619c-29.837,26.814 -54.495,53.068 -64.487,80.157c-3.34,9.056 -10.823,12.524 -12.12,13.125c-6.416,2.973 -12.218,2.092 -13.28,1.93c-0.742,-0.113 -4.733,-0.719 -8.81,-3.23c-1.203,-0.741 -8.068,-4.971 -10.376,-14.29c-1.124,-4.537 -0.547,-8.331 -0.438,-9.047c0.075,-0.497 0.383,-2.524 1.716,-6.044c23.8,-62.885 98.325,-112.452 126.489,-142.36c0.086,-0.091 0.17,-0.181 0.253,-0.27Z" style="fill:#fff;"/></g><path d="M1258.142,734.384c-1.079,-17.623 -4.534,-50.847 -15.633,-101.63c-2.463,-11.27 -4.703,-20.571 -5.943,-25.471c-0.611,-2.411 -0.634,-2.411 -0.756,-4.892c-0.069,-1.411 -0.464,-9.465 5.915,-16.639c3.106,-3.493 6.561,-5.163 7.213,-5.479c0.676,-0.327 4.31,-2.084 9.092,-2.319c1.411,-0.069 9.465,-0.464 16.639,5.915c3.493,3.106 5.163,6.561 5.479,7.213c1.274,2.635 1.183,2.675 1.897,5.515c0.971,3.865 4.083,16.499 7.725,33.758c18.397,-27.031 43.569,-45.137 72.142,-45.124c38.34,0.017 62.446,32.648 69.677,42.769c0.832,1.165 5.604,7.845 3.985,17.44c-1.177,6.972 -5.186,11.259 -5.919,12.043c-0.512,0.548 -3.268,3.495 -7.643,5.435c-1.291,0.573 -8.653,3.838 -17.648,0.472c-4.378,-1.639 -7.184,-4.258 -7.714,-4.752c-2.486,-2.32 -2.304,-2.483 -4.326,-5.22c-17.082,-23.123 -29.645,-21.625 -32.273,-21.391c-21.314,1.897 -48.065,39.399 -54.041,86.44c-0.724,5.702 -1.039,10.793 -1.136,15.097c0.312,5.744 0.442,10.65 0.471,14.81c0.017,2.363 0.076,2.369 -0.312,4.699c-0.253,1.523 -1.739,10.454 -10.751,16.03c-9.012,5.576 -17.667,2.919 -19.143,2.466c-10.131,-3.11 -13.831,-11.373 -14.462,-12.782c-0.541,-1.209 -0.981,-2.469 -1.31,-3.753c-0.115,-0.448 -0.533,-2.081 -0.793,-5.725c-0.353,-4.945 -0.494,-9.929 -0.431,-14.927Z" style="fill:#fff;"/><path d="M1533.586,597.382c9.014,-5.72 50.846,-33.05 95.525,-19.453c56.971,17.337 79.446,90.064 42.136,145.489c-3.673,5.457 -16.814,24.469 -43.97,39.226c-45.702,24.834 -93.545,0.744 -116.797,-44.608c-21.521,-41.976 -17.337,-93.355 21.602,-119.661c0.119,-0.081 0.12,-0.079 1.504,-0.992Zm25.27,39.286c-4.961,3.235 -14.305,10.702 -14.584,29.053c-0.433,28.532 23.254,63.236 48.764,59.941c3.866,-0.499 9.274,-1.804 19.129,-8.429c42.507,-28.575 36.226,-78.438 9.302,-92.204c-24.927,-12.744 -56.341,7.657 -62.554,11.602l-0.035,0.023l0,0l-0.021,0.014Z" style="fill:#fff;"/><path d="M1776.796,600.41c1.416,-4.044 3.628,-6.695 4.066,-7.219c1.987,-2.382 2.078,-2.3 4.517,-4.216c45.234,-35.532 83.156,-26.085 106.741,-4.6c31.891,29.052 44.197,85.562 35.755,117.108c-0.968,3.619 -2.381,8.38 -8.094,18.077c-37.297,63.312 -113.706,68.806 -149.835,22.452c-20.35,-26.11 -28.765,-70.277 -1.239,-131.415c1.164,-2.585 1.097,-2.632 2.761,-4.927c0.47,-0.649 2.196,-3.028 5.328,-5.26Zm35.631,26.611c-0.347,1.031 -0.666,1.735 -0.801,2.034c-20.593,45.525 -14.9,73.248 -3.276,86.1c17.482,19.329 55.121,13.373 73.935,-24.368c1.451,-2.911 3.135,-16.581 -2.032,-35.705c-5.773,-21.37 -18.008,-40.697 -32.446,-42.852c-12.484,-1.863 -26.536,7.875 -34.399,14.133c-0.331,0.213 -0.657,0.434 -0.981,0.658Z" style="fill:#fff;"/><g><path d="M2013.7,771.651c-1.547,-0.276 -3.13,-0.401 -4.642,-0.829c-1.033,-0.293 -6.678,-1.891 -11.288,-7.256c-0.931,-1.083 -6.287,-7.316 -5.598,-16.956l18.487,-244.393c0.082,-1.088 0.536,-7.09 4.975,-12.696c5.96,-7.527 13.96,-8.534 15.362,-8.71c9.733,-1.225 16.277,3.956 17.41,4.853c7.527,5.96 8.534,13.96 8.71,15.362c0.196,1.556 0.235,3.14 0.122,4.704l-18.487,244.393c-0.082,1.088 -0.536,7.09 -4.975,12.696c-5.96,7.527 -13.96,8.534 -15.362,8.71l-4.714,0.121Z" style="fill:#fff;"/><path d="M2103.823,639.235c12.829,1.344 28.265,3.622 44.109,9.149c47.716,16.645 74.639,53.95 91.506,91.25c3.972,8.783 1.033,16.537 0.526,17.875c-2.506,6.612 -7.269,10.041 -8.14,10.668c-7.959,5.729 -16.18,4.308 -17.604,4.061c-9.458,-1.635 -14.174,-8.177 -15,-9.324c-1.977,-2.743 -1.788,-2.856 -3.206,-5.925c-39.964,-86.535 -100.171,-64.834 -135.921,-77.144c-6.082,-2.094 -16.418,-6.782 -22.8,-18.169c-1.462,-2.608 -2.095,-4.913 -2.218,-5.36c-0.181,-0.657 -1.149,-4.181 -0.724,-8.492c0.095,-0.965 0.286,-1.918 0.465,-2.87c0.467,-2.484 0.565,-2.461 1.603,-4.761c1.702,-3.77 5.177,-7.566 10.011,-12.438c8.26,-8.325 39.709,-38.636 76.871,-55.238c19.354,-8.646 33.221,-10.418 40.319,-11.02c1.428,-0.121 9.612,-0.815 17.044,5.505c5.387,4.581 7.016,10.219 7.315,11.25c0.401,1.388 2.721,9.414 -2.088,17.934c-4.717,8.357 -12.462,10.609 -13.819,11.004c-3.475,1.011 -3.541,0.659 -7.132,1.127c-11.237,1.465 -24.876,6.833 -40.179,16.246c-7.478,4.599 -14.569,9.684 -20.937,14.672Z" style="fill:#fff;"/></g><path d="M2431.379,709.41c1.299,-0.885 2.516,-1.906 3.895,-2.66c1.24,-0.678 8.316,-4.547 17.557,-1.953c4.498,1.262 7.507,3.632 8.075,4.08c0.589,0.464 3.754,2.957 6.057,7.153c0.68,1.239 4.559,8.308 1.962,17.55c-1.264,4.499 -3.64,7.513 -4.089,8.083c-0.78,0.99 -3.405,4.32 -12.237,9.932c-31.545,20.045 -95.457,35.095 -129.671,-0.358c-18.805,-19.486 -19.379,-44.876 -19.689,-54.601c-0.585,-18.385 -0.31,-67.751 36.488,-96.423c39.464,-30.749 98.254,-18.782 120.687,4.569c5.035,5.241 10.183,12.76 11.236,24.879c0.634,7.299 0.7,30.299 -29.238,42.194c-17.808,7.076 -42.807,9.092 -71.47,12.623c-0.754,0.093 -1.504,0.239 -2.263,0.281c-1.566,0.087 -3.14,0.226 -4.704,0.106c-1.258,-0.097 -7.803,-0.599 -13.69,-5.847c-0.025,0.306 -0.05,0.614 -0.073,0.924c-0.606,8.03 -0.548,20.611 0.824,27.197c1.872,8.981 6.1,16.011 20.177,18.157c21.032,3.206 49.593,-7.074 60.163,-15.885Zm-63.877,-71.584c8.816,-1.032 27.854,-3.158 38.628,-4.887c2.599,-0.417 5.735,-0.961 8.872,-1.631c-8.698,-2.717 -20.747,-4.243 -32.584,-1.074c-4.45,1.191 -9.825,3.314 -14.916,7.593Z" style="fill:#fff;"/><path d="M2691.516,712.646c0.436,-0.635 0.917,-1.269 1.448,-1.898c3.014,-3.572 6.425,-5.331 7.069,-5.663c4.244,-2.189 9.598,-2.954 10.462,-3.077c0.716,-0.102 9.239,-1.647 17.193,3.295c1.493,0.927 10.537,6.547 11.213,18.888c0.218,3.984 -0.536,12.366 -8.264,19.456c-8.98,8.239 -33.36,18.124 -55.361,23.502c-62.028,15.163 -112.685,-1.063 -132.808,-52.124c-30.095,-76.365 19.636,-126.74 81.479,-134.067c15.808,-1.873 31.337,-0.799 45.152,3.048c0.329,-51.659 1.704,-112.073 1.705,-112.079c0.194,-1.557 0.236,-3.14 0.583,-4.67c0.313,-1.378 2.1,-9.241 10.175,-14.433c1.216,-0.782 8.236,-5.296 17.801,-3.122c1.378,0.313 9.238,2.1 14.432,10.175c2.528,3.931 3.208,7.708 3.337,8.421c0.278,1.544 0.299,3.124 0.371,4.691c0.005,0.107 -0.293,12.187 -0.769,38.953c-0.764,42.934 -1.161,83.359 -0.92,109.74c0.638,1.559 1.211,3.16 1.715,4.802c3.308,10.788 3.172,22.07 0.481,33.015c-0.243,0.989 -1.687,7.646 -6.829,12.767c-3.914,3.898 -7.969,5.335 -8.753,5.612c-3.679,1.303 -6.733,1.383 -7.329,1.399c-0.62,0.016 -3.863,0.102 -7.673,-1.074c-1.535,-0.474 -10.36,-3.197 -14.794,-13.578c-1.761,-4.122 -2.855,-8.448 -3.331,-29.467c-0.584,-0.5 -1.243,-0.998 -1.984,-1.499c-13.24,-8.946 -43.75,-10.301 -66.277,2.846c-18.684,10.904 -20.218,26.077 -20.644,29.99c-1.133,10.416 1.776,22.222 5.914,32.355c6.166,15.096 17.709,25.736 42.438,26.938c22.864,1.111 48.565,-6.955 62.77,-13.144Z" style="fill:#fff;"/><path d="M2879.025,725.879c10.352,0.518 34.613,-7.592 46.63,-11.581c17.965,-5.964 34.478,-11.654 54.409,-17.271c9.273,-2.613 16.491,1.431 17.738,2.129c6.169,3.456 8.855,8.675 9.346,9.629c4.49,8.722 1.869,16.646 1.414,18.018c-3.016,9.115 -10.185,12.805 -11.441,13.452c-2.914,1.5 -2.987,1.33 -6.14,2.227c-60.882,17.323 -104.641,40.978 -135.407,24.576c-21.595,-11.513 -23.216,-35.718 -23.602,-41.837c-0.347,-5.506 -0.108,-10.54 0.34,-25.854c4.72,-161.324 7.689,-165.351 6.899,-177.954c0.058,-1.571 -0.041,-3.156 0.172,-4.713c0.191,-1.4 1.279,-9.39 8.858,-15.282c3.689,-2.867 7.385,-3.88 8.083,-4.071c0.723,-0.198 4.612,-1.263 9.356,-0.622c1.4,0.189 9.391,1.269 15.282,8.85c2.868,3.691 3.88,7.392 4.072,8.091c0.321,1.172 1.288,4.706 0.981,15.161c-0.339,11.575 -3.44,43.658 -7.488,188.507c-0.121,4.316 0.189,6.993 0.498,8.544Z" style="fill:#fff;"/><g><path d="M3061.02,611.597c-1.135,-3.769 -1.006,-6.895 -0.979,-7.536c0.162,-3.906 1.573,-7.949 1.805,-8.614c0.297,-0.85 2.014,-5.771 5.98,-9.539c0.707,-0.672 1.427,-1.338 2.214,-1.913c1.034,-0.755 2.113,-1.455 3.236,-2.069c0.639,-0.35 1.344,-0.564 2.029,-0.812c3.519,-1.275 4.821,-1.375 5.255,-1.408c1.033,-0.079 2.063,-0.227 3.099,-0.236c0.951,-0.008 6.148,-0.05 11.51,2.978c0.78,0.441 1.519,0.952 2.259,1.457c0.593,0.405 1.213,0.782 1.739,1.272c0.923,0.86 1.784,1.788 2.589,2.759c3.762,4.535 4.715,10.025 4.88,10.971c1.11,6.39 -0.126,17.351 -2.352,91.62c-0.963,32.118 -1.591,59.237 -1.596,59.28c-0.193,1.53 -0.236,3.086 -0.58,4.589c-0.31,1.354 -2.078,9.08 -10.022,14.172c-3.867,2.479 -7.58,3.142 -8.281,3.267c-0.726,0.13 -4.632,0.826 -9.219,-0.223c-1.354,-0.31 -9.08,-2.077 -14.172,-10.021c-2.479,-3.867 -3.142,-7.58 -3.267,-8.282c-0.271,-1.518 -0.328,-3.07 -0.357,-4.611c-0.023,-1.224 0.818,-32.006 0.894,-34.789c1.589,-58.127 2.926,-88.515 3.336,-102.313Z" style="fill:#fff;"/><path d="M3045.034,502.611c-0.754,-1.349 -1.645,-2.629 -2.261,-4.046c-0.284,-0.653 -1.788,-4.11 -1.865,-8.705c-0.157,-9.435 5.299,-15.184 6.254,-16.191c1.061,-1.118 2.264,-2.102 3.5,-3.023l20.339,-14.242c1.346,-0.752 2.624,-1.641 4.038,-2.255c1.273,-0.554 8.542,-3.714 17.353,-0.34c1.327,0.508 8.987,3.442 12.832,12.284c0.284,0.653 1.788,4.112 1.865,8.705c0.157,9.435 -5.299,15.184 -6.254,16.191c-1.061,1.118 -2.261,2.106 -3.5,3.023c-3.611,2.67 -7.357,5.151 -11.036,7.727l-9.295,6.509c-0.878,0.615 -5.725,4.009 -12.751,4.126c-9.435,0.157 -15.184,-5.299 -16.191,-6.254l-3.029,-3.509Z" style="fill:#fff;"/></g><path d="M3199.941,495.135c1.56,0.205 3.148,0.256 4.68,0.614c1.046,0.245 6.764,1.582 11.622,6.733c0.981,1.04 6.622,7.022 6.381,16.694l-6.756,230.751c-0.032,1.091 -0.208,7.114 -4.387,12.924c-5.611,7.801 -13.563,9.178 -14.957,9.419c-9.675,1.675 -16.457,-3.202 -17.632,-4.047c-7.801,-5.611 -9.178,-13.563 -9.419,-14.957c-0.268,-1.547 -0.38,-3.128 -0.34,-4.698l6.756,-230.751c0.032,-1.091 0.208,-7.114 4.387,-12.924c5.611,-7.801 13.563,-9.178 14.957,-9.419l4.708,-0.34Z" style="fill:#fff;"/><path d="M3315.258,487.629c1.559,0.205 3.145,0.256 4.676,0.614c1.045,0.245 6.759,1.581 11.613,6.727c0.98,1.039 6.618,7.018 6.376,16.681l-6.976,238.276c-0.032,1.091 -0.208,7.108 -4.383,12.914c-5.606,7.795 -13.552,9.171 -14.945,9.412c-9.668,1.674 -16.444,-3.2 -17.618,-4.044c-7.795,-5.606 -9.171,-13.552 -9.412,-14.945c-0.268,-1.546 -0.38,-3.126 -0.34,-4.694l6.976,-238.276c0.032,-1.091 0.208,-7.108 4.383,-12.914c5.606,-7.795 13.552,-9.171 14.945,-9.412l4.704,-0.339Z" style="fill:#fff;"/><path d="M3450.048,670.454c-0.597,0.606 -1.166,1.271 -1.703,2.003c-6.829,9.309 -7.537,24.554 -12.582,35.852c-0.16,0.359 -1.023,2.29 -2.452,4.26c-0.815,1.124 -5.468,7.538 -14.77,9.109c-4.529,0.765 -8.204,-0.081 -8.898,-0.24c-9.395,-2.162 -13.679,-9.155 -14.422,-10.366c-4.929,-8.044 -3.152,-15.766 -2.84,-17.119c0.525,-2.283 0.753,-2.229 1.498,-4.41l-0.002,-0.001c0.007,-0.018 0.013,-0.036 0.02,-0.053c3.859,-10.062 7.204,-47.339 41.537,-63.565c10.513,-4.969 20.963,-6.483 28.598,-6.952c2.236,-0.137 2.239,-0.186 4.465,0.06c1.488,0.164 10.21,1.128 16.082,9.556c0.734,1.054 1.381,2.174 1.925,3.337c1.07,2.283 0.983,2.316 1.64,4.751c5.125,19.02 8.748,37.288 11.818,50.881c1.803,-3.076 3.814,-6.714 6.039,-11.009c11.887,-22.956 21.893,-48.974 22.383,-50.011c0.53,-1.121 1.012,-2.271 1.657,-3.331c0.752,-1.234 5.162,-8.473 14.94,-10.152c1.424,-0.245 9.778,-1.679 17.47,4.587c6.011,4.896 7.347,11.343 7.584,12.487c0.525,2.533 0.382,2.549 0.5,5.13c0.927,20.203 3.042,68.3 2.545,122.685c8.338,-6.12 15.216,-10.785 19.72,-13.791c0.02,-0.014 8.111,-5.185 19.177,-11.53c2.666,-1.528 3.654,-2.19 12.11,-6.369c1.328,-0.656 12.172,-6.015 16.76,-7.872c23.14,-9.366 41.991,-15.051 42.491,-15.181c0.006,-0.002 21.2,-5.655 43.06,-9.363c-6.244,3.662 -19.15,11.022 -36.827,23.121c-2.172,1.486 -16.508,9.888 -36.985,24.93c-0.778,0.572 -8.652,5.725 -19.676,13.87c-1.941,1.434 -9.284,6.266 -20.619,14.821c-3.104,2.343 -19.507,13.609 -40.245,32.001c-1.873,48.562 -6.456,97.498 -16.2,132.871c-6.195,22.489 -18.173,54.119 -45.274,60.3c-20.469,4.668 -39.22,-8.116 -48.36,-18.352c-27.43,-30.718 -18.506,-85.008 33.189,-147.424c12.066,-14.568 24.25,-26.915 34.857,-36.779c0.55,-24.609 0.437,-48.871 0.018,-70.739c-4.335,6.187 -8.708,11.3 -13.116,15.076c-16.794,14.388 -35.525,10.945 -46.301,-2.171c-10.405,-12.665 -13.284,-33.139 -20.813,-64.908Zm77.726,177.573c-38.157,46.303 -49.164,85.641 -38.079,101.241c3.997,5.625 10.914,8.178 11.891,7.867c0.005,-0.002 0.009,-0.002 0.012,-0.003l-0.007,-0.031c1.128,-0.757 17.089,-10.483 24.791,-92.283c0.519,-5.513 0.982,-11.119 1.392,-16.791Z" style="fill:#fff;"/></g><g id="Logo"><g><path d="M558.978,815.159c-1.225,1.033 -2.355,2.191 -3.675,3.098c-1.19,0.818 -7.983,5.483 -17.639,3.836c-4.699,-0.802 -7.999,-2.882 -8.624,-3.276l-3.779,-2.946c-1.041,-1.222 -2.208,-2.347 -3.123,-3.667c-0.822,-1.186 -5.513,-7.952 -3.856,-17.619c0.807,-4.705 2.9,-8.018 3.295,-8.644c1.977,-3.13 2.081,-3.075 4.916,-5.462c27.568,-23.217 56.52,-36.201 74.05,-43.153c7.184,-2.849 16.252,-5.764 17.679,-6.223c9.009,-2.897 12.685,-3.79 13.804,-4.062c12.053,-2.93 18.377,-3.925 19.991,-4.179c10.952,-1.723 17.039,-2.22 18.528,-2.341c1.785,-0.146 12.604,-1.029 22.371,-0.957c0.149,0.001 -8.417,3.345 -21.967,10.568c-2.18,1.162 -7.285,3.676 -16.011,8.731c-1.522,0.882 -6.986,3.764 -15.724,9.157c-0.399,0.246 -14.66,8.215 -31.652,20.574c-30.483,22.171 -45.301,42.229 -48.582,46.564Zm0,0c0.003,-0.003 0.006,-0.005 0.009,-0.008l-0.015,0.016c0.002,-0.003 0.004,-0.005 0.006,-0.008Z" style="fill:#fff;"/><path d="M511.828,778.737c10.201,-18.633 65.273,-106.992 159.21,-120.731c81.489,-11.919 131.045,31.977 147.625,53.605c2.179,2.842 3.073,4.693 3.284,5.132c4.698,9.729 1.097,18.227 0.483,19.677c-4.215,9.948 -12.977,12.847 -14.472,13.341c-1.283,0.424 -2.606,0.74 -3.942,0.941c-2.89,0.435 -2.903,0.256 -5.826,0.239c-26.232,-0.158 -59.71,3.628 -72.574,11.977c-2.881,1.87 -7.423,5.48 -8.051,5.979c-26.522,21.083 -49.074,52.127 -92.853,61.958c-7.767,1.744 -37.224,7.987 -84.378,-11.135c-10.914,-4.426 -18.119,-8.374 -18.75,-8.717c-9.862,-5.355 -11.765,-14.648 -12.09,-16.235c-0.276,-1.348 -0.436,-2.725 -0.475,-4.1c-0.08,-2.768 0.163,-3.799 0.239,-4.12c0.944,-4.012 1.625,-3.802 2.569,-7.812Zm56.584,0.52c14.128,4.71 31.682,8.356 46.541,4.891c31.889,-7.437 49.07,-36.507 83.061,-60.151c4.512,-3.138 14.751,-9.683 36.451,-14.605c-3.153,-1.048 -6.47,-1.986 -9.95,-2.784c-2.395,-0.549 -22.443,-5.606 -49.673,-0.904c-50.159,8.662 -86.957,47.451 -106.43,73.552Z" style="fill:#fff;"/></g><g><path d="M476.152,895.537c-1.224,1.027 -2.351,2.18 -3.671,3.08c-1.19,0.812 -7.959,5.428 -17.625,3.715c-4.704,-0.834 -8.016,-2.936 -8.641,-3.334c-3.474,-2.206 -3.304,-2.437 -5.954,-5.59c-21.344,-25.398 -48.121,-42.564 -59.929,-49.951c-10.619,-6.644 -17.456,-10.091 -21.835,-12.573c-7.057,-4 -7.115,-3.887 -17.127,-9.157c-1.359,-0.716 -6.224,-3.276 -17.21,-8.52c-11.496,-5.487 -19.308,-8.32 -19.223,-8.323c4.774,-0.196 17.747,-0.297 28.416,0.622c7.455,0.642 13.353,1.411 15.238,1.657c0.759,0.099 8.294,1.26 17.532,3.18c6.788,1.411 22.897,5.95 34.034,10.012c33.632,12.266 57.224,26.958 74.836,40.915c2.236,1.772 2.158,1.87 3.767,4.225c0.814,1.191 5.459,7.992 3.735,17.645c-0.839,4.699 -2.955,7.998 -3.354,8.621l-2.989,3.776Z" style="fill:#fff;"/><path d="M488.204,857.941c0.727,2.648 2.134,5.077 2.861,7.725c0.365,1.329 0.379,2.738 0.39,4.116c0.084,11.051 -7.077,17.214 -8.293,18.26c-0.362,0.311 -1.802,1.551 -4.942,3.337c-5.121,2.913 -21.748,11.9 -42.693,18.027c-35.183,10.291 -57.989,5.604 -73.117,0.594c-38.571,-12.775 -59.578,-41.948 -88.137,-60.422c-10.287,-6.654 -38.304,-10.732 -69.967,-9.961c-4.857,0.118 -4.854,0.203 -5.276,0.191c-1.348,-0.038 -2.705,0.03 -4.044,-0.126c-1.562,-0.182 -10.711,-1.248 -16.85,-10.113c-0.895,-1.293 -6.139,-8.865 -3.54,-19.331c0.162,-0.651 1.006,-4.051 3.421,-7.66c9.352,-13.982 55.728,-69.715 145.902,-60.01c84.937,9.142 142.113,80.562 161.841,111.413c1.234,1.929 2.254,3.639 2.445,3.959Zm-56.569,2.531c-21.363,-26.53 -61.1,-64.91 -112.853,-70.473c-8.495,-0.913 -31.072,-3.001 -55.763,6.06c5.344,1.016 10.598,2.265 15.588,3.795c13.726,4.209 20.867,8.942 28.539,14.387c30.175,21.413 47.687,45.81 76.915,52.307c2.572,0.572 18.11,4.811 47.575,-6.076Z" style="fill:#fff;"/></g><path d="M454.841,694.957c0.278,10.308 4.652,18.433 27.753,31.361c26.162,14.641 62.915,28.259 74.339,62.522c2.859,8.574 8.219,31.559 -7.045,56.174c-20.293,32.723 -65.246,49.282 -86.047,71.848c-7.962,8.637 -10.249,15.824 -8.892,25.308c0.899,6.278 4.02,19.1 30.822,27.829c61.695,20.094 187.616,-1.198 275.244,-33.859c18.077,-6.738 30.758,-12.897 66.029,-25.923c66.196,-24.445 182.771,-61.465 290.05,-62.23l792.899,-3.376l896.77,-1.116l237.608,0.57c0.162,0.001 51.567,0.938 51.699,0.943c0.183,0.006 50.001,2.085 50.077,2.09c4.795,0.32 88.176,6.021 88.788,6.071c0.03,0.002 22.464,2.233 42.12,4.196l44.495,4.481l-81.174,8.238c-1.807,0.184 -3.611,0.4 -5.421,0.552c-2.713,0.228 -2.715,0.187 -33.948,2.419c-53.744,3.84 -53.738,3.875 -56.416,3.998l-48.449,2.217c-3.509,0.129 -3.509,0.077 -43.885,0.995c-16.331,0.371 -16.33,0.241 -32.662,0.366l-1892.73,12.867c-20.446,0.184 -96.919,-1.415 -231.782,42.028c-56.236,18.115 -96.305,35.594 -106.89,39.824c-88.63,35.417 -237.037,66.025 -318.342,38.761c-56.723,-19.02 -63.168,-59.775 -62.167,-80.691c1.814,-37.879 32.286,-60.378 55.232,-75.915c21.754,-14.73 47.176,-29.487 49.772,-44.705c1.104,-6.469 -1.269,-10.743 -1.723,-11.561c-8.211,-14.791 -40.944,-25.561 -65.35,-41.983c-13.85,-9.318 -37.79,-28.45 -38.258,-63.735c-0.267,-20.116 11.827,-48.628 71.448,-95.445c23.784,-18.676 44.948,-32.165 44.961,-32.172c1.431,-0.721 2.799,-1.584 4.294,-2.159c1.347,-0.517 9.036,-3.468 18.031,0.434c1.354,0.588 9.175,3.981 12.761,13.329c0.517,1.347 3.462,9.026 -0.438,18.024c-1.899,4.381 -4.716,7.107 -5.248,7.622c-2.428,2.35 -2.561,2.189 -5.389,4.034c-30.438,19.855 -76.575,55.019 -90.189,79.062c-2.409,4.255 -2.669,6.13 -2.749,6.704Z" style="fill:#fff;"/><g><g><path d="M647.45,239.065c-1.597,-0.162 -3.218,-0.167 -4.792,-0.487c-0.725,-0.147 -4.564,-0.927 -8.521,-3.601c-1.484,-1.003 -10.373,-7.009 -10.541,-19.755c-0.141,-10.722 0,-21.447 0,-32.17l-0,-54.02c0,-1.114 0,-7.262 4.088,-13.313c5.489,-8.124 13.56,-9.766 14.974,-10.054c9.818,-1.997 16.881,2.775 18.104,3.601c8.124,5.489 9.766,13.56 10.054,14.974c0.319,1.57 0.476,3.18 0.487,4.782c0.054,8.015 0,-5.989 0,86.19c0,1.114 0,7.262 -4.088,13.313c-5.489,8.124 -13.56,9.766 -14.974,10.054l-4.792,0.487Z" style="fill:#fff;"/><path d="M411.451,243.848c-1.597,-0.162 -3.218,-0.167 -4.792,-0.487c-0.725,-0.147 -4.564,-0.927 -8.521,-3.601c-1.484,-1.003 -10.38,-7.013 -10.541,-19.755c-0.142,-11.234 0,-22.471 0,-33.706l-0,-57.268c0,-1.114 0,-7.262 4.088,-13.313c5.489,-8.124 13.56,-9.766 14.974,-10.054c9.818,-1.997 16.881,2.775 18.104,3.601c8.124,5.489 9.766,13.56 10.054,14.974c0.319,1.57 0.477,3.18 0.487,4.782c0.054,8.398 0,-5.606 0,90.974c0,1.114 0,7.262 -4.088,13.313c-5.489,8.124 -13.56,9.766 -14.974,10.054l-4.792,0.487Z" style="fill:#fff;"/><path d="M408.094,0.001c2.151,0.019 28.434,-0.855 49.964,19.816c29.56,28.38 26.533,75.049 -6.574,99.755c-31.484,23.494 -77.395,17.264 -100.705,-13.875c-22.627,-30.227 -15.042,-72.505 17.292,-93.813c18.103,-11.929 35.937,-11.848 40.023,-11.884Zm29.31,42.21l-5.472,-5.281c-1.359,-1.073 -8.786,-6.937 -20.151,-7.889c-2.297,-0.192 -15.592,-1.306 -27.456,8.725c-3.366,2.846 -3.453,2.776 -6.185,6.236c-1.527,1.934 -2.853,4.041 -3.968,6.239c-1.026,2.025 -6.923,13.66 -2.368,28.281c0.696,2.234 4.722,15.158 18.884,22.335c1.031,0.523 6.514,3.302 13.911,3.921c2.297,0.192 15.592,1.306 27.456,-8.725c3.366,-2.846 3.453,-2.776 6.185,-6.236c1.412,-1.788 9.469,-11.993 7.805,-27.387c-0.81,-7.497 -3.783,-12.921 -4.344,-13.946c-1.218,-2.223 -2.865,-4.183 -4.298,-6.274Z" style="fill:#fff;"/><path d="M426.649,51.223c0.907,1.324 1.95,2.566 2.722,3.973c0.356,0.649 2.238,4.084 2.751,8.832c1.053,9.748 -4.049,16.213 -4.943,17.345c-1.773,2.246 -1.839,2.192 -4.023,4.039c-0.851,0.719 -5.546,4.689 -12.806,5.473c-9.748,1.053 -16.213,-4.049 -17.345,-4.943c-7.864,-6.208 -8.78,-14.682 -8.939,-16.151c-1.053,-9.748 4.049,-16.213 4.943,-17.345c1.684,-2.133 1.729,-2.099 3.805,-3.855c9.873,-8.347 20.373,-5.388 22.117,-4.896c4.594,1.295 7.671,3.723 8.252,4.182l3.465,3.345Z" style="fill:#fff;"/><path d="M645.643,0.001c2.151,0.019 28.434,-0.855 49.964,19.816c29.56,28.38 26.533,75.049 -6.574,99.755c-31.484,23.494 -77.395,17.264 -100.705,-13.875c-22.627,-30.227 -15.042,-72.505 17.292,-93.813c18.103,-11.929 35.937,-11.848 40.023,-11.884Zm29.117,42.21l-5.472,-5.281c-1.359,-1.073 -8.786,-6.937 -20.151,-7.889c-2.297,-0.192 -15.592,-1.306 -27.456,8.725c-3.366,2.846 -3.453,2.776 -6.185,6.236c-1.527,1.934 -2.853,4.041 -3.968,6.239c-6.923,13.66 -3.043,26.113 -2.368,28.281c4.722,15.158 16.796,21.277 18.884,22.335c1.031,0.523 6.514,3.302 13.911,3.921c2.297,0.192 15.592,1.306 27.456,-8.725c3.366,-2.846 3.453,-2.776 6.185,-6.236c1.412,-1.788 9.469,-11.993 7.805,-27.387c-0.81,-7.497 -3.783,-12.921 -4.344,-13.946c-1.218,-2.223 -2.865,-4.183 -4.298,-6.274Z" style="fill:#fff;"/><path d="M664.197,51.223c0.907,1.324 1.95,2.566 2.722,3.973c0.356,0.649 2.238,4.084 2.751,8.832c1.053,9.748 -4.049,16.213 -4.943,17.345c-1.773,2.246 -1.839,2.192 -4.023,4.039c-0.851,0.719 -5.546,4.689 -12.806,5.473c-9.748,1.053 -16.213,-4.049 -17.345,-4.943c-7.864,-6.208 -8.78,-14.682 -8.939,-16.151c-1.053,-9.748 4.049,-16.213 4.943,-17.345c1.684,-2.133 1.729,-2.099 3.805,-3.855c9.873,-8.347 20.373,-5.388 22.117,-4.896c4.594,1.295 7.671,3.723 8.252,4.182l3.465,3.345Z" style="fill:#fff;"/></g><path d="M524.819,290.924c67.04,-76.345 169.382,-152.889 304.535,-150.53c96.462,1.684 161.968,39.931 193.067,85.744c23.283,34.298 28.408,73.33 14.921,108.439c-13.214,34.399 -43.943,54.965 -77.14,65.983c-43.99,14.6 -91.095,12.353 -91.095,12.353c-10.327,-0.496 -19.159,-7.588 -21.873,-17.564c-2.714,-9.976 1.308,-20.565 9.961,-26.225c0,0 26.683,-17.384 45.01,-39.182c5.02,-5.97 9.462,-12.224 11.899,-18.595c1.105,-2.89 2.071,-5.725 1.04,-8.436c-3.412,-8.969 -12.101,-15.349 -22.406,-19.244c-19.103,-7.221 -44.283,-5.456 -65.203,9.856c-14.307,10.472 -21.798,27.487 -28.071,47.09c-7.837,24.491 -13.032,52.881 -20.514,81.516c-12.591,48.183 -31.585,96.603 -73.829,132.329c-41.487,35.086 -106.167,58.76 -212.778,54.605c-72.034,-2.808 -117.811,-20.34 -148.792,-45.089c-31.852,-25.445 -48.725,-58.981 -60.726,-95.585c-8.447,-25.763 -14.453,-53.062 -23.053,-79.331c-11.24,-34.334 -26.991,-67.054 -63.209,-89.798c-16.562,-10.4 -39.364,-11.466 -56.825,-5.019c-12.512,4.619 -22.464,13.998 -19.086,28.754c2.101,9.18 11.261,17.269 20.184,24.696c17.653,14.691 37.845,24.886 37.845,24.886c9.438,4.763 14.615,15.171 12.72,25.572c-1.895,10.401 -10.41,18.313 -20.922,19.441c0,0 -41.553,4.465 -82.208,-6.597c-30.494,-8.298 -59.869,-25.273 -75.313,-55.755c-43.154,-85.172 24.202,-193.286 161.655,-214.565c179.992,-27.865 304.863,95.826 350.207,150.253Zm20.216,48.583c-1.372,2.702 -3.274,5.17 -5.671,7.234c-32.459,42.128 -52.652,80.977 -60.185,99.268c-5.013,12.173 -18.967,17.986 -31.14,12.973c-12.173,-5.013 -17.986,-18.967 -12.973,-31.14c7.756,-18.834 27.646,-56.808 59.204,-99.153c-32.373,-41.706 -144.854,-166.805 -312.359,-140.873c-61.684,9.55 -106.918,39.945 -125.631,77.507c-10.906,21.892 -12.054,46.074 -0.767,68.35c6.756,13.334 18.631,21.455 31.652,26.746c-6.348,-8.646 -10.951,-17.749 -13.019,-26.781c-7.789,-34.027 6.578,-59.648 31.152,-75.331c31.277,-19.961 81.802,-21.323 116.632,0.549c61.187,38.421 79.065,97.497 95.106,156.357c11.67,42.823 21.68,85.674 59.116,113.67c25.067,18.746 61.98,30.322 118.048,32.508c89.909,3.505 145.125,-13.771 180.113,-43.361c34.23,-28.948 48.276,-68.921 58.478,-107.963c9.383,-35.906 15.547,-71.385 26.92,-99.962c9.143,-22.973 21.628,-41.893 39.645,-55.08c35.341,-25.867 77.977,-28.184 110.249,-15.984c23.952,9.054 42.196,26.06 50.127,46.907c7.163,18.83 2.707,39.901 -9.876,59.653c-2.287,3.591 -4.85,7.141 -7.602,10.619c0.974,-0.302 1.948,-0.615 2.919,-0.937c19.889,-6.601 39.717,-17.203 47.634,-37.813c8.044,-20.94 4.027,-44.08 -9.859,-64.537c-24.656,-36.322 -77.949,-63.504 -154.427,-64.839c-129.756,-2.265 -224.932,78.004 -283.487,151.414Z" style="fill:#fff;"/></g></g></g></svg>